<svg width="26" height="22" viewBox="0 0 26 22" fill="none" xmlns="http://www.w3.org/2000/svg">
<path d="M25.2188 18.5469L15.2344 1.48438C14.8125 0.828125 14.1562 0.5 13.5 0.5C12.7969 0.5 12.1406 0.828125 11.7188 1.48438L1.6875 18.5469C0.984375 19.8594 1.92188 21.5 3.46875 21.5H23.4844C25.0312 21.5 25.9688 19.8594 25.2188 18.5469ZM3.9375 19.25L13.4531 2.98438L23.0156 19.25H3.9375ZM13.5 14.8438C12.6562 14.8438 12 15.5 12 16.2969C12 17.0938 12.6562 17.75 13.5 17.75C14.2969 17.75 14.9531 17.0938 14.9531 16.2969C14.9531 15.5 14.2969 14.8438 13.5 14.8438ZM12.375 7.625V12.125C12.375 12.7812 12.8438 13.25 13.5 13.25C14.1094 13.25 14.625 12.7812 14.625 12.125V7.625C14.625 7.01562 14.1094 6.5 13.5 6.5C12.8438 6.5 12.375 7.01562 12.375 7.625Z" fill="#EC1929"/>
</svg>
