<svg width="25" height="24" viewBox="0 0 25 24" fill="none" xmlns="http://www.w3.org/2000/svg">
<path d="M12.5 0C5.84375 0 0.5 5.39062 0.5 12C0.5 18.6562 5.84375 24 12.5 24C19.1094 24 24.5 18.6562 24.5 12C24.5 5.39062 19.1094 0 12.5 0ZM12.5 21.75C7.10938 21.75 2.75 17.3906 2.75 12C2.75 6.65625 7.10938 2.25 12.5 2.25C17.8438 2.25 22.25 6.65625 22.25 12C22.25 17.3906 17.8438 21.75 12.5 21.75ZM12.5 14.25C13.1094 14.25 13.625 13.7812 13.625 13.125V7.125C13.625 6.51562 13.1094 6 12.5 6C11.8438 6 11.375 6.51562 11.375 7.125V13.125C11.375 13.7812 11.8438 14.25 12.5 14.25ZM12.5 15.8438C11.6562 15.8438 11 16.5 11 17.2969C11 18.0938 11.6562 18.75 12.5 18.75C13.2969 18.75 13.9531 18.0938 13.9531 17.2969C13.9531 16.5 13.2969 15.8438 12.5 15.8438Z" fill="#FFCC17"/>
</svg>
