<svg width="30" height="30" viewBox="0 0 30 30" fill="none" xmlns="http://www.w3.org/2000/svg">
<defs>
<linearGradient id="paint0_linear_613_3408" x1="10.7672" y1="27.3551" x2="17.0606" y2="9.42119" gradientUnits="userSpaceOnUse">
<stop stop-color="#EC234A"/>
<stop offset="1" stop-color="#EF5149"/>
</linearGradient>
<linearGradient id="paint1_linear_613_3408" x1="15.8307" y1="8.86222" x2="14.4576" y2="10.1644" gradientUnits="userSpaceOnUse">
<stop stop-color="white"/>
<stop offset="1" stop-color="#B4B4B4"/>
</linearGradient>
<linearGradient id="paint2_linear_613_3408" x1="15.2832" y1="14.3036" x2="14.1233" y2="13.6416" gradientUnits="userSpaceOnUse">
<stop stop-color="white"/>
<stop offset="1" stop-color="#B4B4B4"/>
</linearGradient>
<clipPath id="clip0_613_3408">
<rect width="28.75" height="29.8018" fill="white" transform="translate(0.625)"/>
</clipPath>
</defs>
<g clip-path="url(#clip0_613_3408)">
<path d="M26.8602 29.8018H3.13977C2.80444 29.8039 2.47211 29.7381 2.16255 29.6082C1.853 29.4782 1.57256 29.2868 1.33792 29.0454C1.10328 28.804 0.919244 28.5175 0.796766 28.2029C0.674288 27.8883 0.61587 27.5521 0.624995 27.2143L1.2518 3.54252C1.28688 2.90025 1.56776 2.29672 2.03535 1.85887C2.50295 1.42101 3.12083 1.18295 3.75903 1.19476H26.2334C26.8716 1.18295 27.4895 1.42101 27.9571 1.85887C28.4247 2.29672 28.7056 2.90025 28.7406 3.54252L29.3712 27.2143C29.3809 27.5519 29.3229 27.888 29.2009 28.2026C29.0788 28.5171 28.8951 28.8037 28.6608 29.0452C28.4265 29.2867 28.1462 29.4781 27.8369 29.6081C27.5275 29.7381 27.1954 29.804 26.8602 29.8018Z" fill="#BE202E"/>
<path d="M26.8338 28.47H3.16998C2.83565 28.4727 2.50421 28.4075 2.19539 28.2784C1.88657 28.1493 1.60668 27.959 1.37239 27.7186C1.1381 27.4782 0.954199 27.1928 0.831637 26.8794C0.709075 26.5659 0.650356 26.2308 0.658979 25.894L1.28957 2.33636C1.32466 1.69645 1.60487 1.09525 2.07115 0.659425C2.53744 0.223605 3.15339 -0.0128021 3.78924 6.28072e-06H26.2145C26.8504 -0.0128021 27.4663 0.223605 27.9326 0.659425C28.3989 1.09525 28.6791 1.69645 28.7142 2.33636L29.341 25.8978C29.3496 26.2341 29.291 26.5687 29.1686 26.8817C29.0463 27.1947 28.8627 27.4797 28.6287 27.7197C28.3948 27.9597 28.1153 28.1498 27.8069 28.2787C27.4986 28.4076 27.1676 28.4727 26.8338 28.47Z" fill="url(#paint0_linear_613_3408)"/>
<path d="M16.8955 3.18115H21.5701C21.7203 3.18115 21.8644 3.24128 21.9706 3.34832C22.0768 3.45536 22.1365 3.60055 22.1365 3.75192L18.9685 10.4604C18.9211 10.5592 18.8472 10.6426 18.755 10.7011C18.6629 10.7597 18.5563 10.791 18.4474 10.7914H15.0491C14.952 10.7911 14.8565 10.7661 14.7715 10.7188C14.6866 10.6715 14.6148 10.6033 14.5629 10.5206C14.5109 10.438 14.4805 10.3434 14.4744 10.2458C14.4683 10.1481 14.4867 10.0505 14.528 9.9619L17.4619 3.75192C17.4619 3.60055 17.4022 3.45536 17.296 3.34832C17.1898 3.24128 17.0457 3.18115 16.8955 3.18115Z" fill="url(#paint1_linear_613_3408)"/>
<path d="M16.8955 19.5395H21.5701C21.7203 19.5395 21.8644 19.4793 21.9706 19.3723C22.0768 19.2653 22.1365 19.1201 22.1365 18.9687L18.9685 12.2603C18.9211 12.1614 18.8472 12.078 18.755 12.0195C18.6629 11.961 18.5563 11.9297 18.4474 11.9292H15.0491C14.952 11.9295 14.8565 11.9545 14.7715 12.0018C14.6866 12.0492 14.6148 12.1173 14.5629 12.2C14.5109 12.2827 14.4805 12.3772 14.4744 12.4749C14.4683 12.5725 14.4867 12.6701 14.528 12.7587L17.4619 18.9687C17.4619 19.1201 17.4022 19.2653 17.296 19.3723C17.1898 19.4793 17.0457 19.5395 16.8955 19.5395Z" fill="url(#paint2_linear_613_3408)"/>
<path d="M15.034 10.7914H10.3556C10.2054 10.7914 10.0613 10.7312 9.95509 10.6242C9.84888 10.5171 9.7892 10.372 9.7892 10.2206V3.75186C9.7892 3.59746 9.85006 3.44937 9.95841 3.34019C10.0668 3.23101 10.2137 3.16968 10.3669 3.16968H13.8936C13.9693 3.16968 14.0443 3.18476 14.1142 3.21407C14.184 3.24337 14.2475 3.28631 14.3008 3.34043C14.3542 3.39454 14.3964 3.45875 14.425 3.52936C14.4536 3.59997 14.4681 3.67559 14.4676 3.75186V10.2206C14.4676 10.372 14.5273 10.5171 14.6335 10.6242C14.7397 10.7312 14.8838 10.7914 15.034 10.7914Z" fill="white"/>
<path d="M15.034 11.9292H10.3556C10.2054 11.9292 10.0613 11.9893 9.95509 12.0964C9.84888 12.2034 9.7892 12.3486 9.7892 12.5V18.9687C9.79019 19.1228 9.85137 19.2703 9.9595 19.3793C10.0676 19.4882 10.214 19.5499 10.3669 19.5509H13.8936C14.0462 19.5499 14.1922 19.4881 14.2997 19.379C14.4072 19.27 14.4676 19.1224 14.4676 18.9687V12.5C14.4676 12.3486 14.5273 12.2034 14.6335 12.0964C14.7397 11.9893 14.8838 11.9292 15.034 11.9292Z" fill="white"/>
<path d="M3.2455 26.2784V22.1917H4.01957L5.74517 25.0759H5.33737L7.03277 22.1917H7.78795V26.2784H6.90816V23.5539H7.07053L5.71497 25.837H5.29206L3.91006 23.5539H4.10641V26.2784H3.2455Z" fill="white"/>
<path d="M9.78165 26.2784V24.6079L9.99688 25.1787L8.21464 22.1917H9.21149L10.5746 24.4747H10.0044L11.3751 22.1917H12.2964L10.5142 25.1787L10.7219 24.6079V26.2784H9.78165Z" fill="white"/>
<path d="M12.6514 26.2784V22.1917H13.5802V26.2784H12.6514ZM13.4896 25.3423L13.4368 24.254L15.3776 22.1917H16.4198L14.6715 24.0942L14.1504 24.6536L13.4896 25.3423ZM15.4229 26.2784L13.9805 24.4976L14.596 23.8279L16.5179 26.2784H15.4229Z" fill="white"/>
<path d="M16.9333 26.2784V22.1917H17.8659V26.2784H16.9333Z" fill="white"/>
<path d="M20.8036 26.3468C20.4997 26.3494 20.1978 26.2965 19.9125 26.1908C19.6506 26.0902 19.4107 25.939 19.2064 25.7456C18.9062 25.4443 18.702 25.0596 18.6199 24.6407C18.5379 24.2218 18.5817 23.7878 18.7457 23.3941C18.8534 23.1411 19.0115 22.9132 19.2102 22.7244C19.4145 22.531 19.6544 22.3798 19.9163 22.2792C20.4859 22.071 21.11 22.071 21.6796 22.2792C21.9399 22.3808 22.1784 22.5319 22.382 22.7244C22.5782 22.9138 22.736 23.14 22.8464 23.3903C22.962 23.6565 23.0199 23.9444 23.0163 24.235C23.0203 24.5191 22.966 24.8009 22.8568 25.0628C22.7477 25.3247 22.586 25.5611 22.382 25.7571C22.1782 25.9484 21.9397 26.0982 21.6796 26.1985C21.3991 26.3015 21.1022 26.3518 20.8036 26.3468ZM20.8036 25.544C20.9755 25.5444 21.1458 25.5121 21.3058 25.4488C21.4569 25.3887 21.5934 25.2966 21.7061 25.1787C21.8236 25.0618 21.9161 24.922 21.9779 24.7677C22.0432 24.5979 22.0752 24.417 22.0723 24.235C22.0756 24.0542 22.0435 23.8744 21.9779 23.7061C21.917 23.5511 21.8259 23.4101 21.7098 23.2913C21.5972 23.1734 21.4607 23.0813 21.3096 23.0212C21.1483 22.9579 20.9767 22.9256 20.8036 22.926C20.633 22.9253 20.4638 22.9576 20.3052 23.0212C20.1532 23.0816 20.0155 23.1737 19.9012 23.2913C19.7828 23.4082 19.6913 23.5497 19.6331 23.7061C19.5662 23.8742 19.5328 24.0539 19.5349 24.235C19.5339 24.416 19.5673 24.5955 19.6331 24.7639C19.6912 24.9194 19.7813 25.0607 19.8974 25.1787C20.0111 25.2971 20.149 25.3892 20.3014 25.4488C20.459 25.5111 20.6267 25.5434 20.7961 25.544H20.8036Z" fill="white"/>
<path d="M24.504 26.2782V22.9639H23.2051V22.2029H26.7394V22.9639H25.4405V26.2782H24.504Z" fill="white"/>
</g>
</svg>
