<svg width="15" height="15" viewBox="0 0 15 15" fill="none" xmlns="http://www.w3.org/2000/svg">
<path d="M14.4727 11.332L13.8164 14.0938C13.7344 14.5039 13.4062 14.7773 12.9961 14.7773C6.10547 14.75 0.5 9.14453 0.5 2.25391C0.5 1.84375 0.746094 1.51562 1.15625 1.43359L3.91797 0.777344C4.30078 0.695312 4.71094 0.914062 4.875 1.26953L6.16016 4.25C6.29688 4.60547 6.21484 5.01562 5.91406 5.23438L4.4375 6.4375C5.36719 8.32422 6.89844 9.85547 8.8125 10.7852L10.0156 9.30859C10.2344 9.03516 10.6445 8.92578 11 9.0625L13.9805 10.3477C14.3359 10.5391 14.5547 10.9492 14.4727 11.332Z" fill="#292929"/>
</svg>
