<svg width="13" height="15" viewBox="0 0 13 15" fill="none" xmlns="http://www.w3.org/2000/svg">
<path d="M4.75 11.6875C4.75 11.9336 4.53125 12.125 4.3125 12.125C4.06641 12.125 3.875 11.9336 3.875 11.6875V6C3.875 5.78125 4.06641 5.5625 4.3125 5.5625C4.53125 5.5625 4.75 5.78125 4.75 6V11.6875ZM6.9375 11.6875C6.9375 11.9336 6.71875 12.125 6.5 12.125C6.25391 12.125 6.0625 11.9336 6.0625 11.6875V6C6.0625 5.78125 6.25391 5.5625 6.5 5.5625C6.71875 5.5625 6.9375 5.78125 6.9375 6V11.6875ZM9.125 11.6875C9.125 11.9336 8.90625 12.125 8.6875 12.125C8.44141 12.125 8.25 11.9336 8.25 11.6875V6C8.25 5.78125 8.44141 5.5625 8.6875 5.5625C8.90625 5.5625 9.125 5.78125 9.125 6V11.6875ZM9.04297 1.43359L10.0547 2.9375H11.9688C12.3242 2.9375 12.625 3.23828 12.625 3.59375C12.625 3.97656 12.3242 4.25 11.9688 4.25H11.75V12.5625C11.75 13.793 10.7656 14.75 9.5625 14.75H3.4375C2.20703 14.75 1.25 13.793 1.25 12.5625V4.25H1.03125C0.648438 4.25 0.375 3.97656 0.375 3.59375C0.375 3.23828 0.648438 2.9375 1.03125 2.9375H2.91797L3.92969 1.43359C4.20312 1.02344 4.69531 0.75 5.21484 0.75H7.75781C8.27734 0.75 8.76953 1.02344 9.04297 1.43359ZM4.50391 2.9375H8.46875L7.94922 2.17188C7.92188 2.11719 7.83984 2.0625 7.75781 2.0625H5.21484C5.13281 2.0625 5.05078 2.11719 5.02344 2.17188L4.50391 2.9375ZM2.5625 12.5625C2.5625 13.0547 2.94531 13.4375 3.4375 13.4375H9.5625C10.0273 13.4375 10.4375 13.0547 10.4375 12.5625V4.25H2.5625V12.5625Z" fill="#AAAAAA"/>
</svg>
