<svg width="31" height="23" viewBox="0 0 31 23" fill="none" xmlns="http://www.w3.org/2000/svg">
<path d="M12.6719 13.9219C13.2344 15.4219 13.2812 17.0625 12.8594 18.5625L12.7656 18.75L1.98438 14.8125C1.46875 14.625 1.04688 14.1562 1 13.5938C0.953125 13.0312 1.1875 12.4688 1.65625 12.1406L2.07812 11.9062C3.67188 10.8281 4.89062 9.28125 5.59375 7.45312L6.25 5.57812C7.42188 2.39062 10.9844 0.75 14.2188 1.92188C14.4531 1.96875 14.6875 2.0625 14.875 2.20312C11.875 4.17188 10.5156 8.01562 11.7812 11.5312L12.6719 13.9219ZM13.1875 11.0156C11.9688 7.6875 13.7031 3.98438 17.0312 2.76562C20.4062 1.54688 24.1094 3.28125 25.3281 6.60938L26.2188 9C26.875 10.7812 28.0469 12.3281 29.6406 13.4062L30.2969 13.8281C30.7656 14.1562 31 14.6719 30.9531 15.2344C30.8594 15.7969 30.4844 16.2656 29.9688 16.5L16.0469 21.5625C15.4844 21.75 14.9219 21.6094 14.5 21.2344C14.0781 20.8594 13.9375 20.25 14.0781 19.7344L14.2656 18.9844C14.8281 17.1562 14.7344 15.1875 14.0781 13.4062L13.1875 11.0156ZM23.5 22.5C22.5156 22.5 21.625 22.0312 21.1094 21.3281L26.5469 19.3125C26.5469 19.4062 26.5469 19.4531 26.5469 19.5C26.5469 21.1875 25.1875 22.5 23.5 22.5ZM5.40625 17.6719L10.8906 19.6875C10.375 20.4844 9.4375 21 8.40625 21C6.71875 21 5.35938 19.6875 5.35938 18C5.35938 17.9062 5.40625 17.7656 5.40625 17.6719Z" fill="#AAAAAA"/>
</svg>
