<svg width="40" height="41" viewBox="0 0 40 41" fill="none" xmlns="http://www.w3.org/2000/svg">
<g clip-path="url(#clip0_516_5883)">
<path d="M9.40344 9.63899L7.03734 12.8458C6.84769 13.1306 6.47553 13.2295 6.16954 13.0763L5.70174 12.778C5.39576 12.6248 5.02359 12.7237 4.83395 13.0085L4.10852 14.4322C3.97112 14.6521 3.97112 14.931 4.10852 15.1509L5.27462 16.7102C5.4136 16.9452 5.39806 17.2406 5.2352 17.4597C5.07235 17.6788 4.79394 17.7789 4.52886 17.7136C3.24751 17.3678 3.43056 17.2797 2.58988 18.1136C2.44126 18.2619 2.36977 18.4708 2.39631 18.6791C2.42285 18.8874 2.54441 19.0716 2.72547 19.178L3.94581 20.0254C4.17022 20.1627 4.295 20.4173 4.26596 20.6787C4.23691 20.9401 4.05927 21.1612 3.81022 21.2458C3.62156 21.306 3.46869 21.4458 3.39178 21.6283C3.31487 21.8108 3.3216 22.0178 3.41022 22.1949C3.90301 22.8072 4.58493 23.2388 5.3492 23.422C5.68944 23.6024 6.09323 23.6184 6.44665 23.4654C6.80007 23.3124 7.06479 23.0071 7.16615 22.6356C7.24174 22.4127 7.4275 22.245 7.65691 22.1925C7.88632 22.14 8.12655 22.2102 8.29157 22.378C8.55598 22.6492 8.73225 22.778 8.73903 23.0966C8.73903 24.222 8.9153 28.5678 10.095 30.9136C11.4509 33.6254 13.4848 36.3373 13.4848 38.3712C13.4145 38.8084 13.5724 39.2511 13.9035 39.5451C14.2346 39.8391 14.6929 39.9436 15.1187 39.822C15.3339 39.7897 15.5205 39.6561 15.6204 39.4627C15.895 38.8319 16.5058 38.4133 17.1933 38.3848C17.5546 38.3422 17.8178 38.022 17.7899 37.6593C17.5594 36.3712 18.9085 34.622 18.9085 32.9746C18.8782 32.006 18.6595 31.0527 18.2645 30.1678C18.1701 29.88 18.278 29.5646 18.5289 29.3949C19.8832 28.4568 21.1454 27.3921 22.2984 26.2153C26.4814 22.039 26.3661 22.2627 26.3661 21.9102C26.4027 21.3251 26.6425 20.7712 27.0441 20.3441C27.3356 20.0593 27.9051 20.1203 28.2848 20.1678C28.7729 20.2288 29.2 19.578 29.0509 19.1102C28.597 18.095 27.9708 17.166 27.2 16.3644C26.9526 16.0898 26.9707 15.6677 27.2407 15.4153L27.8712 14.8865C28.0766 14.6808 28.3903 14.629 28.6509 14.7576C29.8509 15.5102 29.5865 15.4763 30.617 15.0695C30.851 14.9935 31.1079 15.0502 31.2881 15.2178C31.4683 15.3853 31.5436 15.6373 31.4848 15.8763L31.1322 16.8729C31.0488 17.1982 31.216 17.5356 31.5255 17.6661L33.0916 18.6831C33.2645 18.7703 33.4664 18.7795 33.6465 18.7082C33.8266 18.637 33.9676 18.4921 34.0339 18.3102C34.4272 17.2119 35.2136 14.7983 35.2136 13.3475C35.2136 11.8966 36.5695 11.4898 37.1526 11.3475C37.4464 11.2554 37.6412 10.977 37.6272 10.6695V9.48306C37.691 9.06056 37.5412 8.6339 37.2272 8.34408C36.739 7.94408 35.4509 7.5373 33.8373 8.61527C31.8034 9.9712 31.9797 11.9305 29.9458 12.6085C28.6645 13.0288 28.4678 11.3271 28.0882 10.3915C28.0023 10.182 27.8174 10.0292 27.5954 9.98429C27.3735 9.93936 27.1438 10.0082 26.9831 10.1678L26.0339 10.9746C25.8283 11.18 25.7765 11.4936 25.9051 11.7542L26.2848 12.2831C26.4134 12.5437 26.3616 12.8573 26.156 13.0627L25.2882 13.822C25.1124 14.002 24.8514 14.0699 24.6102 13.9983L23.5322 13.6729C23.22 13.5718 22.8802 13.7089 22.7255 13.9983C22.5035 14.4164 21.9857 14.5769 21.5661 14.3576C18.739 12.8119 21.0848 13.7814 9.40344 9.63899Z" fill="#4FBA6F"/>
<path d="M14.8204 5.92373C15.1417 5.00558 15.7008 4.18911 16.4407 3.55763C16.6792 3.32992 16.7192 2.9637 16.5356 2.68983L15.8577 1.65932C15.668 1.3745 15.2959 1.27564 14.9899 1.42881L13.2204 2.31017C12.9598 2.43879 12.6461 2.38697 12.4407 2.18136C10.8543 0.588136 10.8611 0.500001 10.5085 0.500001H8.16276C7.93725 0.499661 7.72634 0.611473 7.60005 0.798306L6.82039 1.96441C6.72012 2.11441 6.68378 2.29818 6.71941 2.47506C6.75504 2.65193 6.8597 2.8073 7.01022 2.90678L7.97971 3.58475C8.26453 3.77439 8.36339 4.14656 8.21022 4.45254L8.13564 4.5678C7.99122 4.85893 8.0737 5.21159 8.33225 5.40847L10.5085 7.02881C10.6441 7.13163 10.7361 7.28167 10.7662 7.44915L14.8204 5.92373Z" fill="#4FBA6F"/>
<path d="M12.2848 17.6864C11.2606 18.6337 10.9213 20.1118 11.43 21.411C11.9387 22.7101 13.1913 23.5649 14.5865 23.5649C15.9816 23.5649 17.2343 22.7101 17.743 21.411C18.2517 20.1118 17.9124 18.6337 16.8882 17.6864H12.2848Z" fill="#35495E"/>
<path d="M20 11.117C20 13.2458 17.0034 17.6254 15.4712 19.7203C15.264 19.999 14.9372 20.1633 14.5899 20.1633C14.2426 20.1633 13.9157 19.999 13.7085 19.7203C12.1763 17.6254 9.15259 13.2458 9.15259 11.117C9.18103 9.70836 9.76898 8.36902 10.7866 7.39464C11.8042 6.42027 13.1678 5.89102 14.5763 5.92373C15.9848 5.89102 17.3484 6.42027 18.366 7.39464C19.3837 8.36902 19.9716 9.70836 20 11.117Z" fill="#C03A2B"/>
<path d="M19.2272 10.3712C19.2272 12.2017 16.6577 15.9509 15.3425 17.7475C15.1661 17.9863 14.8868 18.1272 14.5899 18.1272C14.293 18.1272 14.0138 17.9863 13.8374 17.7475C12.5221 15.9509 9.95264 12.2017 9.95264 10.3712C10.0045 7.86768 12.0727 5.87836 14.5764 5.92374C15.7835 5.89465 16.9525 6.34737 17.8252 7.18187C18.6978 8.01638 19.2023 9.164 19.2272 10.3712Z" fill="#E64C3C"/>
<path d="M14.5899 13.3814C15.7207 13.3814 16.6374 12.4708 16.6374 11.3475C16.6374 10.2242 15.7207 9.31357 14.5899 9.31357C13.4592 9.31357 12.5425 10.2242 12.5425 11.3475C12.5425 12.4708 13.4592 13.3814 14.5899 13.3814Z" fill="white"/>
</g>
<defs>
<clipPath id="clip0_516_5883">
<rect width="40" height="40" fill="white" transform="translate(0 0.5)"/>
</clipPath>
</defs>
</svg>
