<svg width="48" height="48" viewBox="0 0 48 48" fill="none" xmlns="http://www.w3.org/2000/svg">
<g clip-path="url(#clip0_33_2496)">
<path d="M42.9764 47.683H5.02364C4.48711 47.6865 3.95537 47.5811 3.46009 47.3732C2.9648 47.1653 2.5161 46.8591 2.14068 46.4728C1.76525 46.0866 1.47079 45.6281 1.27483 45.1248C1.07886 44.6215 0.985394 44.0835 0.999993 43.543L2.00288 5.66823C2.05902 4.6406 2.50842 3.67495 3.25657 2.97438C4.00472 2.27381 4.99332 1.89291 6.01444 1.9118H41.9735C42.9946 1.89291 43.9832 2.27381 44.7313 2.97438C45.4795 3.67495 45.9289 4.6406 45.985 5.66823L46.994 43.543C47.0094 44.0832 46.9167 44.621 46.7214 45.1243C46.5261 45.6276 46.2322 46.0861 45.8573 46.4725C45.4823 46.8589 45.034 47.1652 44.539 47.3732C44.0441 47.5811 43.5126 47.6865 42.9764 47.683Z" fill="#BE202E"/>
<path d="M42.9341 45.5519H5.07197C4.53705 45.5561 4.00674 45.4519 3.51263 45.2453C3.01851 45.0388 2.57069 44.7341 2.19582 44.3495C1.82096 43.965 1.52672 43.5083 1.33062 43.0068C1.13452 42.5052 1.04057 41.969 1.05437 41.4301L2.0633 3.73798C2.11946 2.71412 2.56779 1.7522 3.31385 1.05489C4.0599 0.357573 5.04543 -0.0206787 6.06278 -0.000185263H41.9433C42.9606 -0.0206787 43.9461 0.357573 44.6922 1.05489C45.4383 1.7522 45.8866 2.71412 45.9427 3.73798L46.9456 41.4362C46.9594 41.9743 46.8656 42.5097 46.6698 43.0105C46.474 43.5113 46.1802 43.9673 45.8059 44.3513C45.4316 44.7353 44.9845 45.0395 44.4911 45.2458C43.9977 45.452 43.4682 45.5561 42.9341 45.5519Z" fill="url(#paint0_linear_33_2496)"/>
<path d="M27.0328 5.08984H34.5122C34.7525 5.08984 34.9831 5.18605 35.153 5.35732C35.323 5.52858 35.4184 5.76087 35.4184 6.00308L30.3496 16.7366C30.2738 16.8947 30.1555 17.0282 30.0081 17.1218C29.8607 17.2155 29.6901 17.2655 29.5159 17.2663H24.0785C23.9232 17.2658 23.7704 17.2258 23.6345 17.1501C23.4985 17.0743 23.3837 16.9653 23.3006 16.833C23.2175 16.7007 23.1688 16.5495 23.159 16.3932C23.1493 16.237 23.1788 16.0808 23.2448 15.939L27.939 6.00308C27.939 5.76087 27.8436 5.52858 27.6736 5.35732C27.5037 5.18605 27.2732 5.08984 27.0328 5.08984Z" fill="url(#paint1_linear_33_2496)"/>
<path d="M27.0328 31.2629H34.5122C34.7525 31.2629 34.9831 31.1667 35.153 30.9954C35.323 30.8241 35.4184 30.5918 35.4184 30.3496L30.3496 19.6161C30.2738 19.458 30.1555 19.3245 30.0081 19.2309C29.8607 19.1372 29.6901 19.0872 29.5159 19.0864H24.0785C23.9232 19.0869 23.7704 19.1269 23.6345 19.2026C23.4985 19.2784 23.3837 19.3874 23.3006 19.5197C23.2175 19.652 23.1688 19.8032 23.159 19.9595C23.1493 20.1157 23.1788 20.2719 23.2448 20.4137L27.939 30.3496C27.939 30.5918 27.8436 30.8241 27.6736 30.9954C27.5037 31.1667 27.2732 31.2629 27.0328 31.2629Z" fill="url(#paint2_linear_33_2496)"/>
<path d="M24.0544 17.266H16.5689C16.3286 17.266 16.0981 17.1698 15.9282 16.9985C15.7582 16.8272 15.6627 16.595 15.6627 16.3528V6.00279C15.6627 5.75574 15.7601 5.5188 15.9335 5.34411C16.1068 5.16942 16.3419 5.07129 16.5871 5.07129H22.2298C22.3509 5.07129 22.4708 5.09542 22.5827 5.14231C22.6945 5.1892 22.796 5.25791 22.8813 5.34449C22.9667 5.43106 23.0342 5.5338 23.08 5.64678C23.1258 5.75976 23.1489 5.88075 23.1481 6.00279V16.3528C23.1481 16.595 23.2436 16.8272 23.4136 16.9985C23.5835 17.1698 23.814 17.266 24.0544 17.266Z" fill="white"/>
<path d="M24.0544 19.0864H16.5689C16.3286 19.0864 16.0981 19.1826 15.9282 19.3539C15.7582 19.5252 15.6627 19.7575 15.6627 19.9997V30.3496C15.6643 30.5962 15.7622 30.8322 15.9352 31.0065C16.1082 31.1809 16.3424 31.2795 16.5871 31.2811H22.2298C22.4739 31.2795 22.7075 31.1807 22.8795 31.0062C23.0516 30.8316 23.1481 30.5956 23.1481 30.3496V19.9997C23.1481 19.7575 23.2436 19.5252 23.4136 19.3539C23.5835 19.1826 23.814 19.0864 24.0544 19.0864Z" fill="white"/>
<path d="M5.1928 42.0451V35.5063H6.43131L9.19227 40.1212H8.5398L11.2524 35.5063H12.4607V42.0451H11.0531V37.6859H11.3128L9.14395 41.3389H8.4673L6.2561 37.6859H6.57026V42.0451H5.1928Z" fill="white"/>
<path d="M15.6506 42.0451V39.3724L15.995 40.2856L13.1434 35.5063H14.7384L16.9194 39.1593H16.0071L18.2002 35.5063H19.6743L16.8227 40.2856L17.155 39.3724V42.0451H15.6506Z" fill="white"/>
<path d="M20.2422 42.0451V35.5063H21.7284V42.0451H20.2422ZM21.5834 40.5474L21.4988 38.8062L24.6042 35.5063H26.2716L23.4744 38.5505L22.6407 39.4454L21.5834 40.5474ZM24.6766 42.0451L22.3688 39.1958L23.3536 38.1243L26.4287 42.0451H24.6766Z" fill="white"/>
<path d="M27.0932 42.0451V35.5063H28.5855V42.0451H27.0932Z" fill="white"/>
<path d="M33.2858 42.1551C32.7995 42.1591 32.3164 42.0745 31.86 41.9054C31.441 41.7444 31.0572 41.5024 30.7302 41.1931C30.2499 40.711 29.9232 40.0955 29.7919 39.4252C29.6606 38.755 29.7307 38.0605 29.9932 37.4306C30.1654 37.0259 30.4183 36.6612 30.7363 36.3591C31.0632 36.0498 31.447 35.8078 31.866 35.6467C32.7775 35.3137 33.776 35.3137 34.6874 35.6467C35.1039 35.8093 35.4854 36.0512 35.8111 36.3591C36.1252 36.6622 36.3776 37.0241 36.5542 37.4245C36.7392 37.8504 36.8319 38.3112 36.8261 38.7761C36.8325 39.2306 36.7456 39.6815 36.571 40.1005C36.3963 40.5196 36.1376 40.8978 35.8111 41.2114C35.4851 41.5175 35.1036 41.7573 34.6874 41.9176C34.2386 42.0826 33.7635 42.163 33.2858 42.1551ZM33.2858 40.8704C33.5607 40.8711 33.8333 40.8194 34.0893 40.7182C34.3311 40.6221 34.5495 40.4747 34.7297 40.286C34.9177 40.099 35.0658 39.8753 35.1647 39.6284C35.2691 39.3568 35.3204 39.0674 35.3157 38.7761C35.321 38.4868 35.2697 38.1992 35.1647 37.9298C35.0672 37.6819 34.9214 37.4562 34.7357 37.2662C34.5555 37.0775 34.3371 36.9301 34.0953 36.834C33.8373 36.7327 33.5627 36.6811 33.2858 36.6818C33.0127 36.6806 32.742 36.7322 32.4883 36.834C32.2451 36.9307 32.0248 37.078 31.8419 37.2662C31.6524 37.4531 31.506 37.6797 31.4129 37.9298C31.3059 38.1988 31.2525 38.4863 31.2558 38.7761C31.2543 39.0657 31.3076 39.3529 31.4129 39.6224C31.5059 39.8711 31.6501 40.0972 31.8358 40.286C32.0178 40.4754 32.2383 40.6229 32.4823 40.7182C32.7344 40.8179 33.0028 40.8695 33.2737 40.8704H33.2858Z" fill="white"/>
<path d="M39.2065 42.0454V36.7425H37.1282V35.5249H42.783V36.7425H40.7048V42.0454H39.2065Z" fill="white"/>
</g>
<defs>
<linearGradient id="paint0_linear_33_2496" x1="17.2275" y1="43.768" x2="27.297" y2="15.0737" gradientUnits="userSpaceOnUse">
<stop stop-color="#EC234A"/>
<stop offset="1" stop-color="#EF5149"/>
</linearGradient>
<linearGradient id="paint1_linear_33_2496" x1="25.3291" y1="14.1796" x2="23.1321" y2="16.2631" gradientUnits="userSpaceOnUse">
<stop stop-color="white"/>
<stop offset="1" stop-color="#B4B4B4"/>
</linearGradient>
<linearGradient id="paint2_linear_33_2496" x1="24.4531" y1="22.8855" x2="22.5973" y2="21.8263" gradientUnits="userSpaceOnUse">
<stop stop-color="white"/>
<stop offset="1" stop-color="#B4B4B4"/>
</linearGradient>
<clipPath id="clip0_33_2496">
<rect width="46" height="47.6829" fill="white" transform="translate(1)"/>
</clipPath>
</defs>
</svg>
