<svg width="16" height="16" viewBox="0 0 16 16" fill="none" xmlns="http://www.w3.org/2000/svg">
<path d="M11.6875 9.5C11.9062 9.59375 12.0312 9.84375 11.9375 10.0625L11.5938 11.625C11.5312 11.875 11.3438 12 11.0938 12C7.15625 12 3.96875 8.8125 3.96875 4.875C3.96875 4.625 4.125 4.4375 4.375 4.375L5.9375 4.03125C6.15625 3.96875 6.40625 4.09375 6.5 4.3125L7.21875 5.96875C7.3125 6.1875 7.25 6.40625 7.09375 6.5625L6.25 7.25C6.78125 8.34375 7.65625 9.21875 8.75 9.75L9.4375 8.90625C9.5625 8.75 9.78125 8.6875 10 8.78125L11.6875 9.5ZM8 0C12.4062 0 16 3.59375 16 8C16 12.4375 12.4062 16 8 16C3.5625 16 0 12.4375 0 8C0 3.59375 3.5625 0 8 0ZM8 14.5C11.5625 14.5 14.5 11.5938 14.5 8C14.5 4.4375 11.5625 1.5 8 1.5C4.40625 1.5 1.5 4.4375 1.5 8C1.5 11.5938 4.40625 14.5 8 14.5Z" fill="#797777"/>
</svg>
