<svg width="15" height="15" viewBox="0 0 15 15" fill="none" xmlns="http://www.w3.org/2000/svg">
<path d="M12.75 6C13.707 6 14.5 6.79297 14.5 7.75V10.375C14.5 10.8672 14.0898 11.25 13.625 11.25H12.75V13.875C12.75 14.3672 12.3398 14.75 11.875 14.75H3.125C2.63281 14.75 2.25 14.3672 2.25 13.875V11.25H1.375C0.882812 11.25 0.5 10.8672 0.5 10.375V7.75C0.5 6.79297 1.26562 6 2.25 6H12.75ZM11 13V10.375H4V13H11ZM12.3125 8.84375C12.668 8.84375 12.9688 8.57031 12.9688 8.1875C12.9688 7.83203 12.668 7.53125 12.3125 7.53125C11.9297 7.53125 11.6562 7.83203 11.6562 8.1875C11.6562 8.57031 11.9297 8.84375 12.3125 8.84375ZM4 2.5V5.125H2.25V1.625C2.25 1.16016 2.63281 0.75 3.125 0.75H10.6172C10.8633 0.75 11.082 0.859375 11.2461 1.02344L12.4766 2.25391C12.6406 2.41797 12.75 2.63672 12.75 2.88281V5.125H11V3.23828L10.2617 2.5H4Z" fill="white"/>
</svg>
