<svg width="36" height="28" viewBox="0 0 36 28" fill="none" xmlns="http://www.w3.org/2000/svg">
<path d="M20 0C21.625 0 23 1.375 23 3V7C23 8.6875 21.625 10 20 10H19.5V12.5H29C30.875 12.5 32.5 14.125 32.5 16V18H33C34.625 18 36 19.375 36 21V25C36 26.6875 34.625 28 33 28H29C27.3125 28 26 26.6875 26 25V21C26 19.375 27.3125 18 29 18H29.5V16C29.5 15.75 29.25 15.5 29 15.5H19.5V18H20C21.625 18 23 19.375 23 21V25C23 26.6875 21.625 28 20 28H16C14.3125 28 13 26.6875 13 25V21C13 19.375 14.3125 18 16 18H16.5V15.5H7C6.6875 15.5 6.5 15.75 6.5 16V18H7C8.625 18 10 19.375 10 21V25C10 26.6875 8.625 28 7 28H3C1.3125 28 0 26.6875 0 25V21C0 19.375 1.3125 18 3 18H3.5V16C3.5 14.125 5.0625 12.5 7 12.5H16.5V10H16C14.3125 10 13 8.6875 13 7V3C13 1.375 14.3125 0 16 0H20ZM20 3H16V7H20V3ZM3 25H7V21H3V25ZM16 25H20V21H16V25ZM29 25H33V21H29V25Z" fill="#AAAAAA"/>
</svg>
