<svg width="16" height="15" viewBox="0 0 16 15" fill="none" xmlns="http://www.w3.org/2000/svg">
<path d="M1.65625 2.0625C1.51953 2.0625 1.4375 2.17188 1.4375 2.28125V4.46875C1.4375 4.85156 1.13672 5.125 0.78125 5.125C0.398438 5.125 0.125 4.85156 0.125 4.46875V2.28125C0.125 1.46094 0.808594 0.75 1.65625 0.75H3.84375C4.19922 0.75 4.5 1.05078 4.5 1.40625C4.5 1.78906 4.19922 2.0625 3.84375 2.0625H1.65625ZM4.0625 4.90625V10.5938C4.0625 10.9766 3.76172 11.25 3.40625 11.25C3.02344 11.25 2.75 10.9766 2.75 10.5938V4.90625C2.75 4.55078 3.02344 4.25 3.40625 4.25C3.76172 4.25 4.0625 4.55078 4.0625 4.90625ZM4.9375 4.6875C4.9375 4.46875 5.12891 4.25 5.375 4.25C5.59375 4.25 5.8125 4.46875 5.8125 4.6875V10.8125C5.8125 11.0586 5.59375 11.25 5.375 11.25C5.12891 11.25 4.9375 11.0586 4.9375 10.8125V4.6875ZM12.375 4.6875C12.375 4.46875 12.5664 4.25 12.8125 4.25C13.0312 4.25 13.25 4.46875 13.25 4.6875V10.8125C13.25 11.0586 13.0312 11.25 12.8125 11.25C12.5664 11.25 12.375 11.0586 12.375 10.8125V4.6875ZM6.6875 4.90625C6.6875 4.55078 6.96094 4.25 7.34375 4.25C7.69922 4.25 8 4.55078 8 4.90625V10.5938C8 10.9766 7.69922 11.25 7.34375 11.25C6.96094 11.25 6.6875 10.9766 6.6875 10.5938V4.90625ZM11.5 4.90625V10.5938C11.5 10.9766 11.1992 11.25 10.8438 11.25C10.4609 11.25 10.1875 10.9766 10.1875 10.5938V4.90625C10.1875 4.55078 10.4609 4.25 10.8438 4.25C11.1992 4.25 11.5 4.55078 11.5 4.90625ZM14.5625 2.28125C14.5625 2.17188 14.4531 2.0625 14.3438 2.0625H12.1562C11.7734 2.0625 11.5 1.78906 11.5 1.40625C11.5 1.05078 11.7734 0.75 12.1562 0.75H14.3438C15.1641 0.75 15.875 1.46094 15.875 2.28125V4.46875C15.875 4.85156 15.5742 5.125 15.2188 5.125C14.8359 5.125 14.5625 4.85156 14.5625 4.46875V2.28125ZM3.84375 13.4375C4.19922 13.4375 4.5 13.7383 4.5 14.0938C4.5 14.4766 4.19922 14.75 3.84375 14.75H1.65625C0.808594 14.75 0.125 14.0664 0.125 13.2188V11.0312C0.125 10.6758 0.398438 10.375 0.78125 10.375C1.13672 10.375 1.4375 10.6758 1.4375 11.0312V13.2188C1.4375 13.3555 1.51953 13.4375 1.65625 13.4375H3.84375ZM14.5625 11.0312C14.5625 10.6758 14.8359 10.375 15.2188 10.375C15.5742 10.375 15.875 10.6758 15.875 11.0312V13.2188C15.875 14.0664 15.1641 14.75 14.3438 14.75H12.1562C11.7734 14.75 11.5 14.4766 11.5 14.0938C11.5 13.7383 11.7734 13.4375 12.1562 13.4375H14.3438C14.4531 13.4375 14.5625 13.3555 14.5625 13.2188V11.0312Z" fill="#292929"/>
</svg>
