<svg width="20" height="20" viewBox="0 0 20 20" fill="none" xmlns="http://www.w3.org/2000/svg">
<path opacity="0.4" d="M17.8083 9.49163V14.4833C17.8083 16.7833 15.9417 18.65 13.6417 18.65H6.35833C4.05833 18.65 2.19167 16.7833 2.19167 14.4833V9.54997C2.825 10.2333 3.725 10.625 4.7 10.625C5.75 10.625 6.75833 10.1 7.39167 9.2583C7.95833 10.1 8.925 10.625 10 10.625C11.0667 10.625 12.0167 10.125 12.5917 9.29163C13.2333 10.1166 14.225 10.625 15.2583 10.625C16.2667 10.625 17.1833 10.2166 17.8083 9.49163Z" fill="#AAAAAA"/>
<path opacity="0.6" d="M18.6333 6.89175L18.3917 4.58341C18.0417 2.06675 16.9 1.04175 14.4583 1.04175H11.2583L11.875 7.29175C11.8833 7.37508 11.8917 7.46675 11.8917 7.62508C11.9417 8.05841 12.075 8.45841 12.275 8.81675C12.875 9.91675 14.0417 10.6251 15.2583 10.6251C16.3667 10.6251 17.3667 10.1334 17.9917 9.26675C18.4917 8.60008 18.7167 7.75841 18.6333 6.89175Z" fill="#797777"/>
<path opacity="0.6" d="M5.49166 1.04175C3.04166 1.04175 1.90833 2.06675 1.55 4.60841L1.325 6.90008C1.24166 7.79175 1.48333 8.65841 2.00833 9.33341C2.64166 10.1584 3.61666 10.6251 4.7 10.6251C5.91666 10.6251 7.08333 9.91675 7.675 8.83342C7.89166 8.45842 8.03333 8.02508 8.075 7.57508L8.725 1.05008H5.49166V1.04175Z" fill="#797777"/>
<path d="M12.4916 1.04175H7.49165L6.87498 7.17508C6.82498 7.74175 6.90831 8.27508 7.11665 8.75841C7.59998 9.89175 8.73331 10.6251 9.99998 10.6251C11.2833 10.6251 12.3916 9.90841 12.8916 8.76675C13.0416 8.40841 13.1333 7.99175 13.1416 7.56675V7.40841L12.4916 1.04175Z" fill="#797777"/>
<path d="M9.45833 13.8834C8.4 13.9917 7.6 14.8917 7.6 15.9584V18.65H12.3917V16.25C12.4 14.5084 11.375 13.6834 9.45833 13.8834Z" fill="#AAAAAA"/>
</svg>
