<svg width="10" height="8" viewBox="0 0 10 8" fill="none" xmlns="http://www.w3.org/2000/svg">
<path d="M5.04688 0.8125C5.01562 0.796875 4.96875 0.796875 4.95312 0.8125L0.984375 2.42188C0.828125 2.46875 0.75 2.60938 0.75 2.76562V7.625C0.75 7.84375 0.578125 8 0.375 8C0.15625 8 0 7.84375 0 7.625V2.76562C0 2.29688 0.265625 1.89062 0.6875 1.71875L4.67188 0.109375C4.875 0.03125 5.10938 0.03125 5.32812 0.109375L9.29688 1.71875C9.71875 1.89062 10 2.29688 10 2.76562V7.625C10 7.84375 9.82812 8 9.625 8C9.40625 8 9.25 7.84375 9.25 7.625V2.76562C9.25 2.60938 9.15625 2.46875 9.01562 2.42188L5.04688 0.8125ZM2.25 3.75V7.625C2.25 7.84375 2.07812 8 1.875 8C1.65625 8 1.5 7.84375 1.5 7.625V3.625C1.5 3.28125 1.76562 3 2.125 3H7.875C8.21875 3 8.5 3.28125 8.5 3.625V7.625C8.5 7.84375 8.32812 8 8.125 8C7.90625 8 7.75 7.84375 7.75 7.625V3.75H2.25ZM5.875 6.5H6.875C7.07812 6.5 7.25 6.67188 7.25 6.875V7.625C7.25 7.84375 7.07812 8 6.875 8H5.875C5.65625 8 5.5 7.84375 5.5 7.625V6.875C5.5 6.67188 5.65625 6.5 5.875 6.5ZM2.75 4.875C2.75 4.67188 2.90625 4.5 3.125 4.5H4.625C4.82812 4.5 5 4.67188 5 4.875V5.625C5 5.84375 4.82812 6 4.625 6H3.125C2.90625 6 2.75 5.84375 2.75 5.625V4.875ZM3.125 6.5H4.625C4.82812 6.5 5 6.67188 5 6.875V7.625C5 7.84375 4.82812 8 4.625 8H3.125C2.90625 8 2.75 7.84375 2.75 7.625V6.875C2.75 6.67188 2.90625 6.5 3.125 6.5Z" fill="#FF99A0"/>
</svg>
