<svg width="101" height="96" viewBox="0 0 101 96" fill="none" xmlns="http://www.w3.org/2000/svg">
<rect x="1.5" y="1.5" width="97.0962" height="93" rx="14.5" fill="white"/>
<rect x="1.5" y="1.5" width="97.0962" height="93" rx="14.5" stroke="#E2E2E2" stroke-width="3"/>
<g clip-path="url(#clip0_8232_9135)">
<path d="M18.9231 77.3071L24.9808 70.2109H25.8462V83.7686H23.8846C23.4231 83.7686 23.0192 83.6532 22.7885 83.3648C22.5577 83.134 22.3846 82.7302 22.3846 82.2686V78.2302L18.9231 82.384L15.4038 78.2302V82.2686C15.4038 82.7302 15.2885 83.134 15 83.3648C14.7692 83.5956 14.3654 83.7686 13.9038 83.7686H12V70.2109H12.8654L18.9231 77.3071Z" fill="#EF5249"/>
<path d="M35.3657 78.6349V82.2695C35.3657 82.7311 35.2503 83.1349 34.9618 83.3657C34.7311 83.5965 34.3272 83.7695 33.8657 83.7695H31.9041V78.6349L26.7695 70.2695H29.5388C29.9426 70.2695 30.2888 70.3272 30.5772 70.5003C30.8657 70.6734 31.0965 70.9041 31.3272 71.2503L33.6349 75.2888L36.0003 71.2503C36.2311 70.9041 36.4618 70.6157 36.7503 70.5003C37.0388 70.3272 37.3849 70.2695 37.7888 70.2695H40.6734L35.3657 78.6349Z" fill="#EF5249"/>
<path d="M49.9627 83.5389C49.6743 83.4235 49.3858 83.1928 49.155 82.962L45.232 78.6928V82.2697C45.232 82.7312 45.1166 83.1351 44.8281 83.3658C44.5974 83.5966 44.1935 83.7697 43.732 83.7697H41.8281V70.212H43.732C44.1935 70.212 44.5974 70.3274 44.8281 70.6158C45.0589 70.8466 45.232 71.2504 45.232 71.712V75.8081L48.9243 71.0774C49.155 70.7889 49.4435 70.5581 49.732 70.3851C50.0204 70.2697 50.3666 70.1543 50.7127 70.1543H53.8281L48.232 77.1928L54.4627 83.7697H50.9435C50.5974 83.712 50.2512 83.6543 49.9627 83.5389Z" fill="#444444"/>
<path d="M57.3477 83.712C56.8861 83.712 56.4823 83.5966 56.2515 83.3081C56.0207 83.0774 55.8477 82.6735 55.8477 82.212V70.1543H57.8092C58.2707 70.1543 58.6746 70.2697 58.9054 70.5581C59.1361 70.7889 59.3092 71.1928 59.3092 71.6543V83.712H57.3477Z" fill="#444444"/>
<path d="M64.8444 83.0189C63.7482 82.3843 62.8828 81.5189 62.3059 80.4805C61.6713 79.442 61.3828 78.2305 61.3828 76.9612C61.3828 75.692 61.6713 74.5382 62.3059 73.442C62.9405 72.3459 63.7482 71.5382 64.8444 70.9035C65.9405 70.2689 67.152 69.9805 68.479 69.9805C69.8059 69.9805 71.0174 70.2689 72.1136 70.9035C73.2097 71.5382 74.0751 72.4035 74.652 73.442C75.2867 74.5382 75.5751 75.692 75.5751 76.9612C75.5751 78.2305 75.2867 79.442 74.652 80.4805C74.0174 81.5189 73.2097 82.3843 72.1136 83.0189C71.0174 83.6535 69.8059 83.942 68.479 83.942C67.152 83.9997 65.9405 83.6535 64.8444 83.0189ZM66.6328 73.5574C66.0559 73.9035 65.5944 74.3651 65.3059 74.942C64.9597 75.5189 64.8444 76.2112 64.8444 76.9612C64.8444 77.7112 65.0174 78.4035 65.3059 79.0382C65.652 79.6151 66.0559 80.0766 66.6328 80.4228C67.2097 80.7689 67.8444 80.8843 68.479 80.8843C69.1713 80.8843 69.8059 80.7112 70.3251 80.3651C70.902 80.0189 71.3636 79.5574 71.652 78.9805C71.9982 78.4035 72.1136 77.7112 72.1136 76.9612C72.1136 76.2112 71.9405 75.5189 71.652 74.942C71.3059 74.3651 70.902 73.9035 70.3251 73.5574C69.7482 73.2112 69.1136 73.0382 68.479 73.0382C67.7867 73.0382 67.2097 73.2112 66.6328 73.5574Z" fill="#444444"/>
<path d="M78.8074 79.7891C79.0382 79.7891 79.3843 79.9044 79.7305 80.0775C80.7112 80.6544 81.7497 80.8852 82.8459 80.8852C83.4228 80.8852 83.8843 80.7698 84.2305 80.5968C84.5766 80.4237 84.7497 80.1352 84.7497 79.7891C84.7497 79.5006 84.6343 79.2698 84.4035 79.0968C84.1728 78.9237 83.942 78.8083 83.6535 78.7506C83.3651 78.6929 82.9035 78.5775 82.2112 78.4621C81.2882 78.2891 80.4805 78.116 79.7305 77.8852C79.0382 77.6544 78.4035 77.2506 77.7689 76.6737C77.192 76.0968 76.9035 75.2891 76.9035 74.2506C76.9035 73.2121 77.192 72.4044 77.7112 71.7698C78.2305 71.1352 78.9228 70.6737 79.7305 70.4429C80.5382 70.2121 81.4036 70.0391 82.2689 70.0391C84.3459 70.0391 86.1343 70.7314 87.6343 72.116L86.7112 73.3852C86.3651 73.7891 86.0189 74.0198 85.6151 74.0198C85.3266 74.0198 85.0382 73.9044 84.692 73.7314C83.8843 73.3275 83.0189 73.0968 82.2112 73.0968C80.9997 73.0968 80.3651 73.4429 80.3651 74.1352C80.3651 74.4237 80.4805 74.5968 80.6535 74.7698C80.8843 74.9429 81.1151 75.0583 81.4036 75.116C81.692 75.2314 82.1535 75.2891 82.7882 75.4044C82.9035 75.4044 83.0766 75.4621 83.3651 75.5198C84.3459 75.6929 85.0959 75.866 85.7305 76.0968C86.3651 76.3275 86.8843 76.6737 87.4035 77.2506C87.8651 77.8275 88.0959 78.6352 88.0959 79.6737C88.0959 81.116 87.6343 82.1544 86.6535 82.9044C85.7305 83.6544 84.4035 84.0006 82.7882 84.0006C81.4612 84.0006 80.3074 83.8275 79.442 83.4237C78.5189 83.0198 77.6535 82.4429 76.7305 81.6929L77.6535 80.4814C77.9997 80.0198 78.4035 79.7891 78.8074 79.7891Z" fill="#444444"/>
<path fill-rule="evenodd" clip-rule="evenodd" d="M40.5559 15.8654L41.4213 12H24.8636L20.8828 18.2308L13.3828 29.8269C13.4405 33.1154 14.8828 36.0577 17.0751 38.1346C19.2674 40.2115 22.2097 41.4808 25.4405 41.4808C26.8828 41.4808 28.2674 41.25 29.5367 40.7885C33.7482 39.2885 36.8636 35.5385 37.4405 30.9808C37.8444 27.8654 37.7867 28.3269 38.7097 24.1154L40.5559 15.8654Z" fill="#EF5249"/>
<path fill-rule="evenodd" clip-rule="evenodd" d="M58.8459 15.8654L57.9805 12H74.5382L78.5189 18.2308L86.0189 29.8269C85.9036 33.1154 84.5189 36.0577 82.2689 38.1923C80.0766 40.2692 77.1343 41.5385 73.9036 41.5385C72.4612 41.5385 71.0766 41.3077 69.8074 40.8462C65.5959 39.3462 62.4805 35.5962 61.9035 31.0385C61.4997 27.9231 61.5574 28.3846 60.6343 24.1731L58.8459 15.8654Z" fill="#EF5249"/>
<path fill-rule="evenodd" clip-rule="evenodd" d="M13.3281 29.8262C13.4435 33.1146 14.8858 36.0569 17.0781 38.1339C19.2704 40.2108 22.2127 41.48 25.4435 41.48C26.8858 41.48 28.2704 41.2492 29.5397 40.7877C33.7512 39.2877 36.8666 35.5377 37.4435 30.98C37.5012 30.5185 37.5589 30.1146 37.6166 29.8262H13.3281ZM86.0781 29.8262C85.9628 33.1146 84.5781 36.0569 82.3281 38.1916C80.1358 40.2685 77.1935 41.5377 73.9628 41.5377C72.5205 41.5377 71.1358 41.3069 69.8666 40.8454C65.6551 39.3454 62.5397 35.5954 61.9628 31.0377C61.9051 30.5762 61.8474 30.1723 61.7897 29.8839H86.0781V29.8262Z" fill="#EE3834"/>
<path fill-rule="evenodd" clip-rule="evenodd" d="M61.848 29.8269C61.9633 30.75 62.021 31.4423 61.848 29.8269V29.8269ZM49.6749 41.4808C54.2903 41.4808 58.271 38.9423 60.348 35.1923C61.2133 33.6346 61.7903 31.5577 61.7903 29.7692C61.5595 27.8654 61.4441 27.6346 60.6941 24.1154L58.848 15.8654L57.9826 12H41.4249L40.5595 15.8654L38.7133 24.1154C37.9056 27.6923 37.848 27.9231 37.6172 29.7692C37.6172 31.5577 38.1941 33.6346 39.0595 35.1923C41.1364 38.9423 45.1172 41.4808 49.6749 41.4808Z" fill="#E4E4E4"/>
<path fill-rule="evenodd" clip-rule="evenodd" d="M61.8471 29.8272C61.9624 30.7503 62.0201 31.4426 61.8471 29.8272V29.8272ZM49.674 41.4811C54.2894 41.4811 58.2701 38.9426 60.3471 35.1926C61.2124 33.6349 61.7894 31.558 61.7894 29.7695H49.674H37.5586C37.5586 31.558 38.1355 33.6349 39.0009 35.1926C41.1355 38.9426 45.1163 41.4811 49.674 41.4811Z" fill="#CACAC9"/>
<path d="M61.6719 46.1543C61.3257 52.5005 56.0757 57.5197 49.6719 57.5197C43.268 57.5197 38.018 52.5005 37.6719 46.1543H33.1719C33.518 54.9812 40.7873 62.0197 49.6719 62.0197C58.5565 62.0197 65.8257 54.9812 66.1719 46.1543H61.6719Z" fill="#444444"/>
</g>
<defs>
<clipPath id="clip0_8232_9135">
<rect width="76.0962" height="72" fill="white" transform="translate(12 12)"/>
</clipPath>
</defs>
</svg>
