<svg width="37" height="37" viewBox="0 0 37 37" fill="none" xmlns="http://www.w3.org/2000/svg">
<path d="M18.3551 36.6503C19.6507 36.6503 20.7136 35.5835 20.7136 34.2831V18.411V18.2872C20.708 18.2703 20.708 18.2506 20.708 18.228C20.708 18.2112 20.7024 18.1886 20.7024 18.1689C20.6968 18.1549 20.6968 18.1295 20.6968 18.1098C20.6912 18.0929 20.6912 18.0704 20.6856 18.0507C20.68 18.0338 20.68 18.0113 20.6744 17.9972C20.6744 17.9747 20.6688 17.955 20.6632 17.9381C20.6575 17.9156 20.6575 17.9015 20.6519 17.879C20.6463 17.8621 20.6407 17.8396 20.6351 17.8227C20.3771 16.7982 19.4488 16.041 18.3495 16.041H2.35854C1.06288 16.041 0 17.1078 0 18.4138C0 19.7198 1.06288 20.781 2.35854 20.781H12.6004L5.40978 27.9979C4.49272 28.9183 4.49272 30.4242 5.40978 31.3446C6.32683 32.265 7.82721 32.265 8.75267 31.3446L15.9881 24.0798V34.2859C15.9881 35.5863 17.051 36.6531 18.3523 36.6531L18.3551 36.6503Z" fill="url(#paint0_linear_19_480)"/>
<path d="M5.29472 5.42676C4.37767 6.34717 4.37767 7.85303 5.29472 8.77907L10.1212 13.6232C11.0382 14.5436 12.5386 14.5436 13.4585 13.6232C14.3811 12.7028 14.3811 11.1913 13.4585 10.268L8.63201 5.42676C7.71496 4.50635 6.21458 4.50635 5.29472 5.42676Z" fill="#EA8C1C"/>
<path d="M18.1837 0C16.8881 0 15.8252 1.06677 15.8252 2.36717V9.22098C15.8252 10.527 16.8881 11.5881 18.1837 11.5881C19.4794 11.5881 20.5479 10.527 20.5479 9.22098V2.36717C20.5479 1.06677 19.485 0 18.1837 0Z" fill="#EA8C1C"/>
<path d="M31.1237 5.30859C30.2067 4.38818 28.7007 4.38818 27.7808 5.30859L22.9544 10.1499C22.0373 11.0703 22.0373 12.5762 22.9544 13.4966C23.8714 14.4226 25.3802 14.4226 26.2973 13.4966L31.1237 8.65246C32.0408 7.73205 32.0408 6.22619 31.1237 5.30578V5.30859Z" fill="#EA8C1C"/>
<path d="M36.5332 18.2392C36.5332 16.9388 35.4703 15.8721 34.1747 15.8721H27.3458C26.0446 15.8721 24.9873 16.9388 24.9873 18.2392C24.9873 19.5396 26.0446 20.612 27.3458 20.612H34.1747C35.4703 20.612 36.5332 19.5453 36.5332 18.2392Z" fill="#EA8C1C"/>
<path d="M31.2414 31.2235C32.1585 30.3031 32.1585 28.7916 31.2414 27.8712L26.415 23.0271C25.4979 22.1067 23.9947 22.1067 23.0721 23.0271C22.155 23.9475 22.155 25.459 23.0721 26.3794L27.9041 31.2235C28.8212 32.1439 30.3244 32.1439 31.2414 31.2235Z" fill="#EA8C1C"/>
<defs>
<linearGradient id="paint0_linear_19_480" x1="0.462733" y1="36.0057" x2="26.8449" y2="10.4404" gradientUnits="userSpaceOnUse">
<stop stop-color="#340004"/>
<stop offset="0.69" stop-color="#ED1C24"/>
</linearGradient>
</defs>
</svg>
