<svg width="18" height="15" viewBox="0 0 18 15" fill="none" xmlns="http://www.w3.org/2000/svg">
<path d="M4.35156 3.29297C5.58203 2.36328 7.11328 1.625 9 1.625C11.1875 1.625 12.9648 2.63672 14.25 3.83984C15.5352 5.01562 16.3828 6.4375 16.793 7.42188C16.875 7.64062 16.875 7.88672 16.793 8.10547C16.4375 8.98047 15.6992 10.2383 14.6055 11.332L17.4766 13.6016C17.7773 13.8203 17.832 14.2305 17.5859 14.5039C17.3672 14.8047 16.957 14.8594 16.6836 14.6133L0.496094 1.92578C0.195312 1.70703 0.140625 1.29688 0.386719 1.02344C0.605469 0.722656 1.01562 0.667969 1.28906 0.914062L4.35156 3.29297ZM5.41797 4.14062L6.67578 5.125C7.30469 4.57812 8.09766 4.25 9 4.25C10.9141 4.25 12.5 5.83594 12.5 7.75C12.5 8.35156 12.3359 8.89844 12.0898 9.36328L13.5664 10.5117C14.4961 9.58203 15.1523 8.51562 15.5078 7.75C15.125 6.92969 14.4141 5.78125 13.3477 4.79688C12.2266 3.75781 10.7773 2.9375 9 2.9375C7.60547 2.9375 6.40234 3.42969 5.41797 4.14062ZM11.0234 8.54297C11.1328 8.29688 11.1875 8.02344 11.1875 7.75C11.1875 6.54688 10.2031 5.5625 9 5.5625C8.97266 5.5625 8.94531 5.5625 8.91797 5.5625C8.97266 5.72656 9 5.86328 9 6C9 6.30078 8.91797 6.54688 8.80859 6.79297L11.0234 8.54297ZM11.2969 12.0977L12.4453 13C11.4336 13.5469 10.2852 13.875 9 13.875C6.78516 13.875 5.00781 12.8906 3.72266 11.6875C2.4375 10.4844 1.58984 9.0625 1.17969 8.10547C1.09766 7.88672 1.09766 7.64062 1.17969 7.42188C1.45312 6.79297 1.89062 6 2.51953 5.17969L3.53125 6C3.03906 6.62891 2.68359 7.25781 2.46484 7.75C2.84766 8.57031 3.55859 9.74609 4.625 10.7305C5.74609 11.7695 7.19531 12.5625 9 12.5625C9.82031 12.5625 10.5859 12.3984 11.2969 12.0977ZM5.5 7.75C5.5 7.69531 5.5 7.61328 5.5 7.53125L7.03125 8.73438C7.30469 9.30859 7.85156 9.74609 8.50781 9.88281L10.0391 11.1133C9.71094 11.1953 9.35547 11.25 8.97266 11.25C7.05859 11.25 5.47266 9.69141 5.47266 7.75H5.5Z" fill="#797777"/>
</svg>
